<svg xmlns="http://www.w3.org/2000/svg" version="1.1" xmlns:xlink="http://www.w3.org/1999/xlink" xmlns:svgjs="http://svgjs.dev/svgjs" width="100%" height="100%" viewBox="0 0 1000 600"><rect width="1000" height="600" x="0" y="0" fill="#000000"/><g><rect width="333.3333333333333" height="333.3333333333333" rx="13.333333333333334" ry="13.333333333333334" y="222.85131841821018" fill="#d04019" transform="matrix(0.62304024714745,0,0,0.62304024714745,0,57.314611440309776)" x="200.62913513183594"/><path d="M442.29580968324103 328.2057535363512L442.29580968324103 464.51799358395283L415.09882487566455 464.51799358395283L415.09882487566455 427.680064490102L319.49279403677696 427.680064490102L319.49279403677696 464.51799358395283L292.2958092292005 464.51799358395283L292.2958092292005 389.50311535649075Q292.2958092292005 373.0778028687641 297.94944939707744 359.2710184587909Q303.6030895649544 345.46423404881773 313.63086186271505 335.52572975370765Q323.68839016135934 325.5872254585977 337.3761505677983 320.052609294255Q351.09366697512075 314.51799312991227 367.31068745666255 314.51799312991227L367.31068745666255 314.51799312991227L428.6080492768021 314.51799312991227Q431.43486936074055 314.51799312991227 433.93437343495987 315.559453160837Q436.4338775091791 316.6009131917617 438.3382615657272 318.4755412474261Q440.21288962139164 320.35016930309064 441.2543496523163 322.87942937819344Q442.29580968324103 325.37893345241275 442.29580968324103 328.2057535363512L442.29580968324103 328.2057535363512ZM319.49279403677696 389.50311535649075L319.49279403677696 400.4830796825255L415.09882487566455 400.4830796825255L415.09882487566455 341.71497793748875L367.31068745666255 341.71497793748875Q366.03117941866935 341.71497793748875 362.01411929938837 342.07204994809155Q357.9970591801074 342.4291219586943 352.70049102283315 343.8871660019889Q347.4336788664425 345.374966046167 341.57174669238066 348.4100781362904Q335.70981451831875 351.44519022641384 330.8000743725309 356.7715143845716Q325.86057822585946 362.09783854272933 322.6766861313182 370.10220278040777Q319.49279403677696 378.1065670180862 319.49279403677696 389.50311535649075L319.49279403677696 389.50311535649075Z " fill="#d9d5cd" transform="matrix(0.62304024714745,0,0,0.62304024714745,0,57.314611440309776)"/><path d="M756.0643863755113 338.41228618445535L756.0643863755113 464.51798976925556L730.9038072276162 464.51798976925556L730.9038072276162 430.43834317724884L642.4563884068427 430.43834317724884L642.4563884068427 464.51798976925556L617.2958092589477 464.51798976925556L617.2958092589477 395.11993721800445Q617.2958092589477 379.9244889798884 622.5261265872847 367.15150350437057Q627.7564439156217 354.3785180288527 637.0333751769354 345.1841707253549Q646.3378344241876 335.9898234218572 659.0007079559509 330.86961803727456Q671.691109473653 325.74941265269194 686.6938618101988 325.74941265269194L686.6938618101988 325.74941265269194L743.4015128437479 325.74941265269194Q746.0166715079163 325.74941265269194 748.3290223267602 326.7128921605435Q750.6413731456039 327.67637166839506 752.4031642456753 329.4106347825279Q754.137427359808 331.1448978966607 755.1009068676597 333.4847767014431Q756.0643863755113 335.79712752028684 756.0643863755113 338.41228618445535L756.0643863755113 338.41228618445535ZM642.4563884068427 395.11993721800445L642.4563884068427 405.2777640293538L730.9038072276162 405.2777640293538L730.9038072276162 350.909991800587L686.6938618101988 350.909991800587Q685.5101584148383 350.909991800587 681.7938803131251 351.24032763185045Q678.0776022114119 351.5706634631138 673.1776207143382 352.919534774106Q668.3051672032032 354.2959340710368 662.8821539732958 357.1037886367757Q657.4591407433884 359.9116432025145 652.9170230635168 364.83915268552676Q648.3473773977066 369.766662168539 645.4018829022746 377.1716903860268Q642.4563884068427 384.5767186035145 642.4563884068427 395.11993721800445L642.4563884068427 395.11993721800445ZM828.4629893940714 439.3574106213605L828.4629893940714 464.51798976925556L817.2315711311162 464.51798976925556Q811.8085579012088 464.51798976925556 805.6698170368975 462.67361471136826Q799.5310761725859 460.82923965348095 794.2181748864332 456.61745780487274Q788.8777456143416 452.43320394220314 785.4092193860761 445.68884738724216Q781.9131651718717 438.97201881821985 781.9131651718717 429.1995838100112L781.9131651718717 429.1995838100112L781.9131651718717 315.67416979915845L807.0737443197668 315.67416979915845L807.0737443197668 429.1995838100112Q807.0737443197668 433.8518134336373 809.99171082926 436.6046120274989Q812.8821493528148 439.3574106213605 817.2315711311162 439.3574106213605L817.2315711311162 439.3574106213605L828.4629893940714 439.3574106213605ZM936.1799983718763 359.9116432025145L936.1799983718763 385.07222235040956L879.554931296143 385.07222235040956Q874.4347259115602 385.07222235040956 871.8195672473919 387.63232504270087Q869.2044085832233 390.1924277349922 869.2044085832233 395.11993721800445L869.2044085832233 395.11993721800445L869.2044085832233 464.51798976925556L844.0438294353282 464.51798976925556L844.0438294353282 395.11993721800445Q844.0438294353282 388.6508605224297 845.6955085916452 383.5031271519085Q847.3471877479622 378.3829217673259 850.0999863418238 374.4739477640424Q852.8527849356853 370.5374457748203 856.4314231077053 367.7846471809587Q860.0100612797255 365.0318485870971 863.9465632689476 363.2975854729643Q867.855537272231 361.53579437289284 871.8746232192691 360.70995479473436Q875.893709166307 359.9116432025145 879.3622353945727 359.9116432025145L879.3622353945727 359.9116432025145L936.1799983718763 359.9116432025145ZM1052.5958509062837 394.5418495132935L1052.5958509062837 429.8602554725379Q1052.5958509062837 435.09057280087495 1050.7514758483962 441.1467297073705Q1048.9346287764477 447.2028866138661 1044.8054308856551 452.3781479703259Q1040.7037609808015 457.5534093267857 1034.0695163695948 461.0219355550513Q1027.4352717583884 464.51798976925556 1017.9656445955045 464.51798976925556L1017.9656445955045 464.51798976925556L972.5719957827266 464.51798976925556Q967.3416784543895 464.51798976925556 961.285521547894 462.67361471136826Q955.256892627337 460.82923965348095 950.0541032849387 456.7275697486272Q944.8788419284788 452.6258998437734 941.4103157002132 445.9916552325669Q937.9142614860091 439.3574106213605 937.9142614860091 429.8602554725379L937.9142614860091 429.8602554725379Q937.9142614860091 424.6574661301395 939.7586365438963 418.54625325176676Q941.6030116017835 412.4625683593326 945.7046815066374 407.28730700287275Q949.8338793974297 402.0845176604743 956.4405960226977 398.6159914322087Q963.0748406339042 395.11993721800445 972.5719957827266 395.11993721800445L972.5719957827266 395.11993721800445L1017.9656445955045 395.11993721800445L1017.9656445955045 419.1243409564777L972.5719957827266 419.1243409564777Q967.4242624122055 419.1243409564777 964.6439358324051 422.2625313534799Q961.8360812666663 425.42824973642075 961.8360812666663 430.05295137410826L961.8360812666663 430.05295137410826Q961.8360812666663 435.00798884305914 965.0568556214844 437.76078743692074Q968.3051579622411 440.51358603078234 972.7646916842968 440.51358603078234L972.7646916842968 440.51358603078234L1017.9656445955045 440.51358603078234Q1023.0858499800872 440.51358603078234 1025.8937045458258 437.43045160565737Q1028.7015591115648 434.31978919459374 1028.7015591115648 429.6675595709676L1028.7015591115648 429.6675595709676L1028.7015591115648 394.5418495132935Q1028.7015591115648 389.61434003028126 1025.6459526723784 386.6963735207879Q1022.5903462331919 383.80593499723324 1017.9656445955045 383.80593499723324L1017.9656445955045 383.80593499723324L962.6894488307635 383.80593499723324L962.6894488307635 359.9116432025145L1017.9656445955045 359.9116432025145Q1023.168433937903 359.9116432025145 1029.2245908443986 361.7284902744632Q1035.280747750894 363.57286533235043 1040.4560091073538 367.70206322314283Q1045.6312704638137 371.8037331279966 1049.1273246780179 378.4379777392031Q1052.5958509062837 385.07222235040956 1052.5958509062837 394.5418495132935L1052.5958509062837 394.5418495132935ZM1166.699352621847 359.9116432025145L1166.699352621847 385.07222235040956L1109.7990056867277 385.07222235040956L1109.7990056867277 359.9116432025145L1166.699352621847 359.9116432025145ZM1166.699352621847 314.5179943897366L1166.699352621847 339.6785735376317L1109.9917015882982 339.6785735376317Q1104.8714962037154 339.6785735376317 1102.2563375395468 342.238676229923Q1099.6411788753785 344.7987789222143 1099.6411788753785 349.72628840522657L1099.6411788753785 349.72628840522657L1099.6411788753785 464.51798976925556L1074.4805997274832 464.51798976925556L1074.4805997274832 349.72628840522657Q1074.4805997274832 343.25721170965176 1076.1322788838004 338.1370063250692Q1077.7564300541785 332.98927295454797 1080.50922864804 329.08029895126447Q1083.2895552278405 325.1437969620424 1086.8681933998605 322.3909983681808Q1090.4468315718807 319.6381997743192 1094.3558055751641 317.9039366601864Q1098.2923075643862 316.16967354605356 1102.2563375395468 315.3438339678951Q1106.2203675147077 314.5179943897366 1109.7990056867277 314.5179943897366L1109.7990056867277 314.5179943897366L1166.699352621847 314.5179943897366ZM1275.765232910644 359.9116432025145L1275.765232910644 385.07222235040956L1218.8648859755244 385.07222235040956L1218.8648859755244 359.9116432025145L1275.765232910644 359.9116432025145ZM1275.765232910644 314.5179943897366L1275.765232910644 339.6785735376317L1219.057581877095 339.6785735376317Q1213.9373764925122 339.6785735376317 1211.3222178283438 342.238676229923Q1208.7070591641752 344.7987789222143 1208.7070591641752 349.72628840522657L1208.7070591641752 349.72628840522657L1208.7070591641752 464.51798976925556L1183.5464800162802 464.51798976925556L1183.5464800162802 349.72628840522657Q1183.5464800162802 343.25721170965176 1185.1981591725971 338.1370063250692Q1186.8223103429755 332.98927295454797 1189.6026369227757 329.08029895126447Q1192.3554355166373 325.1437969620424 1195.9340736886575 322.3909983681808Q1199.5127118606774 319.6381997743192 1203.4216858639609 317.9039366601864Q1207.3581878531832 316.16967354605356 1211.3222178283438 315.3438339678951Q1215.2862478035045 314.5179943897366 1218.8648859755244 314.5179943897366L1218.8648859755244 314.5179943897366L1275.765232910644 314.5179943897366ZM1404.403511201797 394.5418495132935L1404.403511201797 394.5418495132935Q1404.403511201797 399.77216684163056 1402.5591361439097 405.8283237481261Q1400.7147610860222 411.85695266868305 1396.6130911811686 417.0597420110815Q1392.483893290376 422.23500336754125 1385.8496486791696 425.7035295958069Q1379.2154040679632 429.1995838100112 1369.745776905079 429.1995838100112L1369.745776905079 429.1995838100112L1324.3521280923012 429.1995838100112L1324.3521280923012 405.2777640293538L1369.745776905079 405.2777640293538Q1374.8659822896618 405.2777640293538 1377.6738368554006 402.1395736323516Q1380.4816914211394 399.0013832353493 1380.4816914211394 394.3491536117232L1380.4816914211394 394.3491536117232Q1380.4816914211394 389.4216441287109 1377.3435010241371 386.6137895629721Q1374.2053106271348 383.80593499723324 1369.745776905079 383.80593499723324L1369.745776905079 383.80593499723324L1324.3521280923012 383.80593499723324Q1319.231922707719 383.80593499723324 1316.42406814198 386.94412539423547Q1313.6162135762413 390.0823157912377 1313.6162135762413 394.7345454148638L1313.6162135762413 394.7345454148638L1313.6162135762413 429.8602554725379Q1313.6162135762413 434.89787689930466 1316.7544039732431 437.7057314650435Q1319.8925943702454 440.51358603078234 1324.5448239938717 440.51358603078234L1324.5448239938717 440.51358603078234L1369.745776905079 440.51358603078234L1369.745776905079 464.51798976925556L1324.3521280923012 464.51798976925556Q1319.1218107639643 464.51798976925556 1313.0931818434076 462.67361471136826Q1307.0370249369118 460.82923965348095 1301.861763580452 456.7275697486272Q1296.6865022239922 452.6258998437734 1293.190448009788 445.9916552325669Q1289.7219217815225 439.3574106213605 1289.7219217815225 429.8602554725379L1289.7219217815225 429.8602554725379L1289.7219217815225 394.5418495132935Q1289.7219217815225 389.3115321849565 1291.538768853471 383.2829032643995Q1293.3831439113583 377.226746357904 1297.5123418021506 372.0514850014442Q1301.6140117070045 366.87622364498435 1308.248256318211 363.38016943078014Q1314.8825009294173 359.9116432025145 1324.3521280923012 359.9116432025145L1324.3521280923012 359.9116432025145L1369.745776905079 359.9116432025145Q1374.9760942334165 359.9116432025145 1381.0047231539731 361.7284902744632Q1387.060880060469 363.57286533235043 1392.2361414169286 367.70206322314283Q1397.4114027733883 371.8037331279966 1400.9074569875927 378.4379777392031Q1404.403511201797 385.07222235040956 1404.403511201797 394.5418495132935Z " fill="#d9d5cd" transform="matrix(0.62304024714745,0,0,0.62304024714745,0,57.314611440309776)"/></g></svg>